<mxfile host="app.diagrams.net" modified="2022-08-31T18:12:49.616Z" agent="5.0 (Windows NT 10.0; Win64; x64) AppleWebKit/537.36 (KHTML, like Gecko) Chrome/103.0.5060.134 Safari/537.36 OPR/89.0.4447.104" etag="XE1XMNq0PJMAzA6YoR4M" version="20.2.7" type="github" pages="4">
  <diagram id="cprFbnrc3mf7X_INjDDe" name="Page-1">
    <mxGraphModel dx="2231" dy="804" grid="1" gridSize="10" guides="1" tooltips="1" connect="1" arrows="1" fold="1" page="1" pageScale="1" pageWidth="850" pageHeight="1100" math="0" shadow="0">
      <root>
        <mxCell id="0" />
        <mxCell id="1" parent="0" />
        <mxCell id="2Gw_U44eF3HHqlXJKq_G-9" value="" style="edgeStyle=orthogonalEdgeStyle;rounded=0;orthogonalLoop=1;jettySize=auto;html=1;strokeWidth=4;" edge="1" parent="1" source="2Gw_U44eF3HHqlXJKq_G-5" target="2Gw_U44eF3HHqlXJKq_G-7">
          <mxGeometry relative="1" as="geometry" />
        </mxCell>
        <mxCell id="2Gw_U44eF3HHqlXJKq_G-5" value="" style="whiteSpace=wrap;html=1;aspect=fixed;fillColor=#dae8fc;strokeColor=#6c8ebf;" vertex="1" parent="1">
          <mxGeometry x="-253" y="190" width="270" height="270" as="geometry" />
        </mxCell>
        <mxCell id="2Gw_U44eF3HHqlXJKq_G-4" value="&lt;span style=&quot;&quot;&gt;Android Smartphone&lt;/span&gt;&lt;br style=&quot;&quot;&gt;&lt;span style=&quot;&quot;&gt;Application/Voice&lt;/span&gt;" style="sketch=0;aspect=fixed;pointerEvents=1;shadow=0;dashed=0;html=1;strokeColor=none;labelPosition=center;verticalLabelPosition=bottom;verticalAlign=top;align=center;fillColor=#00188D;shape=mxgraph.mscae.enterprise.android_phone" vertex="1" parent="1">
          <mxGeometry x="-175" y="220" width="114" height="190" as="geometry" />
        </mxCell>
        <mxCell id="2Gw_U44eF3HHqlXJKq_G-12" value="" style="edgeStyle=orthogonalEdgeStyle;rounded=0;orthogonalLoop=1;jettySize=auto;html=1;strokeWidth=4;entryX=0;entryY=0.5;entryDx=0;entryDy=0;" edge="1" parent="1" source="2Gw_U44eF3HHqlXJKq_G-7" target="2Gw_U44eF3HHqlXJKq_G-10">
          <mxGeometry relative="1" as="geometry" />
        </mxCell>
        <mxCell id="2Gw_U44eF3HHqlXJKq_G-7" value="" style="rounded=0;whiteSpace=wrap;html=1;fillColor=#ffe6cc;strokeColor=#d79b00;" vertex="1" parent="1">
          <mxGeometry x="185" y="265" width="180" height="120" as="geometry" />
        </mxCell>
        <mxCell id="2Gw_U44eF3HHqlXJKq_G-8" value="Micro-controller&lt;br&gt;WIFI Enabled" style="html=1;verticalLabelPosition=bottom;align=center;labelBackgroundColor=#ffffff;verticalAlign=top;strokeWidth=2;strokeColor=#0080F0;shadow=0;dashed=0;shape=mxgraph.ios7.icons.wifi;pointerEvents=1" vertex="1" parent="1">
          <mxGeometry x="245" y="280" width="60" height="50" as="geometry" />
        </mxCell>
        <mxCell id="2Gw_U44eF3HHqlXJKq_G-22" value="" style="edgeStyle=orthogonalEdgeStyle;rounded=0;orthogonalLoop=1;jettySize=auto;html=1;strokeWidth=2;entryX=0;entryY=0.5;entryDx=0;entryDy=0;" edge="1" parent="1" source="2Gw_U44eF3HHqlXJKq_G-10" target="2Gw_U44eF3HHqlXJKq_G-15">
          <mxGeometry relative="1" as="geometry" />
        </mxCell>
        <mxCell id="2Gw_U44eF3HHqlXJKq_G-23" value="" style="edgeStyle=orthogonalEdgeStyle;rounded=0;orthogonalLoop=1;jettySize=auto;html=1;strokeWidth=2;entryX=0;entryY=0.5;entryDx=0;entryDy=0;" edge="1" parent="1" source="2Gw_U44eF3HHqlXJKq_G-10" target="2Gw_U44eF3HHqlXJKq_G-14">
          <mxGeometry relative="1" as="geometry" />
        </mxCell>
        <mxCell id="2Gw_U44eF3HHqlXJKq_G-26" value="" style="edgeStyle=orthogonalEdgeStyle;rounded=0;orthogonalLoop=1;jettySize=auto;html=1;strokeWidth=2;entryX=0;entryY=0.5;entryDx=0;entryDy=0;" edge="1" parent="1" source="2Gw_U44eF3HHqlXJKq_G-10" target="2Gw_U44eF3HHqlXJKq_G-17">
          <mxGeometry relative="1" as="geometry" />
        </mxCell>
        <mxCell id="2Gw_U44eF3HHqlXJKq_G-27" value="" style="edgeStyle=orthogonalEdgeStyle;rounded=0;orthogonalLoop=1;jettySize=auto;html=1;strokeWidth=2;entryX=0;entryY=0.5;entryDx=0;entryDy=0;" edge="1" parent="1" source="2Gw_U44eF3HHqlXJKq_G-10" target="2Gw_U44eF3HHqlXJKq_G-16">
          <mxGeometry relative="1" as="geometry" />
        </mxCell>
        <mxCell id="2Gw_U44eF3HHqlXJKq_G-28" value="" style="edgeStyle=orthogonalEdgeStyle;rounded=0;orthogonalLoop=1;jettySize=auto;html=1;strokeWidth=2;" edge="1" parent="1" source="2Gw_U44eF3HHqlXJKq_G-10" target="2Gw_U44eF3HHqlXJKq_G-16">
          <mxGeometry relative="1" as="geometry" />
        </mxCell>
        <mxCell id="2Gw_U44eF3HHqlXJKq_G-29" value="" style="edgeStyle=orthogonalEdgeStyle;rounded=0;orthogonalLoop=1;jettySize=auto;html=1;strokeWidth=2;entryX=0;entryY=0.5;entryDx=0;entryDy=0;" edge="1" parent="1" source="2Gw_U44eF3HHqlXJKq_G-10" target="2Gw_U44eF3HHqlXJKq_G-18">
          <mxGeometry relative="1" as="geometry" />
        </mxCell>
        <mxCell id="2Gw_U44eF3HHqlXJKq_G-30" value="" style="edgeStyle=orthogonalEdgeStyle;rounded=0;orthogonalLoop=1;jettySize=auto;html=1;strokeWidth=2;entryX=0;entryY=0.5;entryDx=0;entryDy=0;" edge="1" parent="1" source="2Gw_U44eF3HHqlXJKq_G-10" target="2Gw_U44eF3HHqlXJKq_G-19">
          <mxGeometry relative="1" as="geometry" />
        </mxCell>
        <mxCell id="2Gw_U44eF3HHqlXJKq_G-10" value="SPDT&lt;br&gt;Relay" style="rounded=0;whiteSpace=wrap;html=1;fillColor=#fff2cc;strokeColor=#d6b656;" vertex="1" parent="1">
          <mxGeometry x="460" y="240" width="120" height="60" as="geometry" />
        </mxCell>
        <mxCell id="2Gw_U44eF3HHqlXJKq_G-13" value="" style="edgeStyle=orthogonalEdgeStyle;rounded=0;orthogonalLoop=1;jettySize=auto;html=1;strokeWidth=4;shape=link;" edge="1" parent="1" source="2Gw_U44eF3HHqlXJKq_G-11" target="2Gw_U44eF3HHqlXJKq_G-10">
          <mxGeometry relative="1" as="geometry" />
        </mxCell>
        <mxCell id="2Gw_U44eF3HHqlXJKq_G-11" value="Power Supply" style="rounded=0;whiteSpace=wrap;html=1;fillColor=#f8cecc;strokeColor=#b85450;" vertex="1" parent="1">
          <mxGeometry x="460" y="340" width="120" height="60" as="geometry" />
        </mxCell>
        <mxCell id="2Gw_U44eF3HHqlXJKq_G-14" value="Thermostat" style="rounded=0;whiteSpace=wrap;html=1;" vertex="1" parent="1">
          <mxGeometry x="670" y="300" width="120" height="60" as="geometry" />
        </mxCell>
        <mxCell id="2Gw_U44eF3HHqlXJKq_G-15" value="Lightning A" style="rounded=0;whiteSpace=wrap;html=1;" vertex="1" parent="1">
          <mxGeometry x="670" y="120" width="120" height="60" as="geometry" />
        </mxCell>
        <mxCell id="2Gw_U44eF3HHqlXJKq_G-16" value="Lightning B" style="rounded=0;whiteSpace=wrap;html=1;" vertex="1" parent="1">
          <mxGeometry x="670" y="205" width="120" height="60" as="geometry" />
        </mxCell>
        <mxCell id="2Gw_U44eF3HHqlXJKq_G-17" value="Power Outlet A" style="rounded=0;whiteSpace=wrap;html=1;" vertex="1" parent="1">
          <mxGeometry x="670" y="470" width="120" height="60" as="geometry" />
        </mxCell>
        <mxCell id="2Gw_U44eF3HHqlXJKq_G-18" value="Power Outlet B" style="rounded=0;whiteSpace=wrap;html=1;" vertex="1" parent="1">
          <mxGeometry x="670" y="560" width="120" height="60" as="geometry" />
        </mxCell>
        <mxCell id="2Gw_U44eF3HHqlXJKq_G-19" value="Security" style="rounded=0;whiteSpace=wrap;html=1;" vertex="1" parent="1">
          <mxGeometry x="670" y="390" width="120" height="60" as="geometry" />
        </mxCell>
      </root>
    </mxGraphModel>
  </diagram>
  <diagram id="mDMzUXV00wdKk52M-jC0" name="Page-2">
    <mxGraphModel dx="1381" dy="804" grid="1" gridSize="10" guides="1" tooltips="1" connect="1" arrows="1" fold="1" page="1" pageScale="1" pageWidth="850" pageHeight="1100" math="0" shadow="0">
      <root>
        <mxCell id="0" />
        <mxCell id="1" parent="0" />
        <mxCell id="B6Po_YSBxara8wVQnYng-7" value="" style="edgeStyle=orthogonalEdgeStyle;rounded=0;orthogonalLoop=1;jettySize=auto;html=1;strokeWidth=2;entryX=0;entryY=0.5;entryDx=0;entryDy=0;" edge="1" parent="1" source="B6Po_YSBxara8wVQnYng-2" target="B6Po_YSBxara8wVQnYng-3">
          <mxGeometry relative="1" as="geometry" />
        </mxCell>
        <mxCell id="B6Po_YSBxara8wVQnYng-2" value="" style="rounded=1;whiteSpace=wrap;html=1;fillColor=#dae8fc;strokeColor=#6c8ebf;" vertex="1" parent="1">
          <mxGeometry x="54" y="180" width="260" height="240" as="geometry" />
        </mxCell>
        <mxCell id="B6Po_YSBxara8wVQnYng-1" value="Solar Array" style="shape=image;html=1;verticalAlign=top;verticalLabelPosition=bottom;labelBackgroundColor=#ffffff;imageAspect=0;aspect=fixed;image=https://cdn0.iconfinder.com/data/icons/green-world-colored/80/solar-sun-green-energy-panel-128.png" vertex="1" parent="1">
          <mxGeometry x="120" y="220" width="128" height="128" as="geometry" />
        </mxCell>
        <mxCell id="B6Po_YSBxara8wVQnYng-8" value="" style="edgeStyle=orthogonalEdgeStyle;rounded=0;orthogonalLoop=1;jettySize=auto;html=1;strokeWidth=2;shape=link;" edge="1" parent="1" source="B6Po_YSBxara8wVQnYng-3" target="B6Po_YSBxara8wVQnYng-4">
          <mxGeometry relative="1" as="geometry" />
        </mxCell>
        <mxCell id="B6Po_YSBxara8wVQnYng-3" value="Controller" style="rounded=1;whiteSpace=wrap;html=1;fillColor=#fff2cc;strokeColor=#d6b656;" vertex="1" parent="1">
          <mxGeometry x="425" y="160" width="120" height="60" as="geometry" />
        </mxCell>
        <mxCell id="B6Po_YSBxara8wVQnYng-4" value="Battery" style="rounded=1;whiteSpace=wrap;html=1;fillColor=#f8cecc;strokeColor=#b85450;" vertex="1" parent="1">
          <mxGeometry x="425" y="300" width="120" height="60" as="geometry" />
        </mxCell>
        <mxCell id="B6Po_YSBxara8wVQnYng-11" value="" style="edgeStyle=orthogonalEdgeStyle;rounded=0;orthogonalLoop=1;jettySize=auto;html=1;strokeWidth=2;entryX=0.5;entryY=1;entryDx=0;entryDy=0;" edge="1" parent="1" source="B6Po_YSBxara8wVQnYng-5" target="B6Po_YSBxara8wVQnYng-6">
          <mxGeometry relative="1" as="geometry">
            <mxPoint x="740" y="310" as="targetPoint" />
            <Array as="points">
              <mxPoint x="720" y="265" />
              <mxPoint x="900" y="265" />
            </Array>
          </mxGeometry>
        </mxCell>
        <mxCell id="B6Po_YSBxara8wVQnYng-13" value="AC Current" style="edgeLabel;html=1;align=center;verticalAlign=middle;resizable=0;points=[];" vertex="1" connectable="0" parent="B6Po_YSBxara8wVQnYng-11">
          <mxGeometry x="-0.1259" y="-1" relative="1" as="geometry">
            <mxPoint as="offset" />
          </mxGeometry>
        </mxCell>
        <mxCell id="B6Po_YSBxara8wVQnYng-5" value="Inverter" style="rounded=1;whiteSpace=wrap;html=1;fillColor=#ffe6cc;strokeColor=#d79b00;" vertex="1" parent="1">
          <mxGeometry x="630" y="160" width="120" height="60" as="geometry" />
        </mxCell>
        <mxCell id="B6Po_YSBxara8wVQnYng-6" value="AC Load" style="rounded=1;whiteSpace=wrap;html=1;fillColor=#d5e8d4;strokeColor=#82b366;" vertex="1" parent="1">
          <mxGeometry x="840" y="160" width="120" height="60" as="geometry" />
        </mxCell>
        <mxCell id="B6Po_YSBxara8wVQnYng-9" value="" style="endArrow=classic;html=1;rounded=0;strokeWidth=2;entryX=0.25;entryY=1;entryDx=0;entryDy=0;" edge="1" parent="1" target="B6Po_YSBxara8wVQnYng-5">
          <mxGeometry width="50" height="50" relative="1" as="geometry">
            <mxPoint x="490" y="260" as="sourcePoint" />
            <mxPoint x="690" y="260" as="targetPoint" />
            <Array as="points">
              <mxPoint x="540" y="260" />
              <mxPoint x="660" y="260" />
            </Array>
          </mxGeometry>
        </mxCell>
        <mxCell id="B6Po_YSBxara8wVQnYng-12" value="Dc Current" style="edgeLabel;html=1;align=center;verticalAlign=middle;resizable=0;points=[];" vertex="1" connectable="0" parent="B6Po_YSBxara8wVQnYng-9">
          <mxGeometry x="-0.1429" relative="1" as="geometry">
            <mxPoint as="offset" />
          </mxGeometry>
        </mxCell>
      </root>
    </mxGraphModel>
  </diagram>
  <diagram id="-8rctf-bd_-rW7mfnIET" name="Page-3">
    <mxGraphModel dx="1381" dy="804" grid="1" gridSize="10" guides="1" tooltips="1" connect="1" arrows="1" fold="1" page="1" pageScale="1" pageWidth="850" pageHeight="1100" math="0" shadow="0">
      <root>
        <mxCell id="0" />
        <mxCell id="1" parent="0" />
      </root>
    </mxGraphModel>
  </diagram>
  <diagram id="X176iFBiy-5V76rKe0Y9" name="Page-4">
    <mxGraphModel dx="1381" dy="804" grid="1" gridSize="10" guides="1" tooltips="1" connect="1" arrows="1" fold="1" page="1" pageScale="1" pageWidth="850" pageHeight="1100" math="0" shadow="0">
      <root>
        <mxCell id="0" />
        <mxCell id="1" parent="0" />
      </root>
    </mxGraphModel>
  </diagram>
</mxfile>
